grf
version=1
nRows=15
nColumns=37
inDegrees=no
endheader
time	ground_force_1_vx	ground_force_1_vy	ground_force_1_vz	ground_force_1_px	ground_force_1_py	ground_force_1_pz	ground_moment_1_mx	ground_moment_1_my	ground_moment_1_mz	ground_force_2_vx	ground_force_2_vy	ground_force_2_vz	ground_force_2_px	ground_force_2_py	ground_force_2_pz	ground_moment_2_mx	ground_moment_2_my	ground_moment_2_mz	ground_force_3_vx	ground_force_3_vy	ground_force_3_vz	ground_force_3_px	ground_force_3_py	ground_force_3_pz	ground_moment_3_mx	ground_moment_3_my	ground_moment_3_mz	ground_force_4_vx	ground_force_4_vy	ground_force_4_vz	ground_force_4_px	ground_force_4_py	ground_force_4_pz	ground_moment_4_mx	ground_moment_4_my	ground_moment_4_mz
      0.00000000	      0.00000000	     -0.00000000	      0.00000000	      0.00000000	      0.00000000	      0.00000000	      0.00000000	      0.00000000	      0.00000000	     -1.33815765	     17.40826607	   -316.55957031	   -273.02185052	  -1002.28527226	      0.00000000	      0.00000000	      0.00000000	   1421.55785148	     -0.31876239	    -20.43823430	   -409.22351074	   -263.67506982	   -727.74381283	      0.00000000	      0.00000000	      0.00000000	  -1725.57367499	      0.00000000	     -0.00000000	      0.00000000	      0.00000000	      0.00000000	      0.00000000	      0.00000000	      0.00000000	      0.00000000
      0.01000000	      0.00000000	     -0.00000000	      0.00000000	      0.00000000	      0.00000000	      0.00000000	      0.00000000	      0.00000000	      0.00000000	     -1.05819201	     17.22681427	   -315.43853760	   -275.09746805	  -1002.15661112	      0.00000000	      0.00000000	      0.00000000	   1496.97796753	     -0.18951098	    -20.59098814	   -409.41213989	   -263.76547516	   -726.74281597	      0.00000000	      0.00000000	     -0.00000000	  -1720.17364659	      0.00000000	     -0.00000000	      0.00000000	      0.00000000	      0.00000000	      0.00000000	      0.00000000	      0.00000000	      0.00000000
      0.02000000	      0.00000000	     -0.00000000	      0.00000000	      0.00000000	      0.00000000	      0.00000000	      0.00000000	      0.00000000	      0.00000000	     -1.24894714	     17.02148819	   -316.65518188	   -275.43689749	  -1002.58677996	      0.00000000	      0.00000000	      0.00000000	   1341.82689330	     -0.72548791	    -20.71930116	   -407.66558838	   -263.76776930	   -727.98681265	      0.00000000	      0.00000000	      0.00000000	  -1511.44799477	      0.00000000	     -0.00000000	      0.00000000	      0.00000000	      0.00000000	      0.00000000	      0.00000000	      0.00000000	      0.00000000
      0.03000000	      0.00000000	     -0.00000000	      0.00000000	      0.00000000	      0.00000000	      0.00000000	      0.00000000	      0.00000000	      0.00000000	     -0.85280001	     16.66738510	   -316.35043335	   -275.52678303	  -1001.92019725	      0.00000000	      0.00000000	      0.00000000	   1388.40460282	     -0.07648347	    -20.13425063	   -406.49652100	   -263.77755543	   -729.12454763	      0.00000000	     -0.00000000	     -0.00000000	  -1780.04098112	      0.00000000	     -0.00000000	      0.00000000	      0.00000000	      0.00000000	      0.00000000	      0.00000000	      0.00000000	      0.00000000
      0.04000000	      0.00000000	     -0.00000000	      0.00000000	      0.00000000	      0.00000000	      0.00000000	      0.00000000	      0.00000000	      0.00000000	     -0.63701451	     16.98631668	   -317.06195068	   -276.62494564	  -1002.27856989	      0.00000000	      0.00000000	      0.00000000	   1379.08700534	     -0.31796500	    -20.81943891	   -409.06054688	   -263.82975038	   -727.95578026	      0.00000000	      0.00000000	      0.00000000	  -1515.77055560	      0.00000000	     -0.00000000	      0.00000000	      0.00000000	      0.00000000	      0.00000000	      0.00000000	      0.00000000	      0.00000000
      0.05000000	      0.00000000	     -0.00000000	      0.00000000	      0.00000000	      0.00000000	      0.00000000	      0.00000000	      0.00000000	      0.00000000	     -0.29374883	     17.36782074	   -316.90579224	   -277.08419953	  -1002.40209482	      0.00000000	      0.00000000	      0.00000000	   1485.67489186	      0.26824732	    -20.96918871	   -411.90151978	   -264.50473281	   -726.42833496	      0.00000000	      0.00000000	      0.00000000	  -1729.49361826	      0.00000000	     -0.00000000	      0.00000000	      0.00000000	      0.00000000	      0.00000000	      0.00000000	      0.00000000	      0.00000000
      0.06000000	      0.00000000	     -0.00000000	      0.00000000	      0.00000000	      0.00000000	      0.00000000	      0.00000000	      0.00000000	      0.00000000	      0.70142889	     17.26595497	   -317.30621338	   -277.67028158	  -1002.98133626	      0.00000000	      0.00000000	      0.00000000	   1518.26418619	      0.23959358	    -21.65119364	   -411.49636841	   -264.49349796	   -727.84677473	      0.00000000	     -0.00000000	     -0.00000000	  -1705.92860734	      0.00000000	     -0.00000000	      0.00000000	      0.00000000	      0.00000000	      0.00000000	      0.00000000	      0.00000000	      0.00000000
      0.07000000	      0.00000000	     -0.00000000	      0.00000000	      0.00000000	      0.00000000	      0.00000000	      0.00000000	      0.00000000	      0.00000000	      0.70093638	     17.35495567	   -316.34838867	   -277.95052645	  -1000.08543306	      0.00000000	      0.00000000	      0.00000000	   1456.27356118	      0.26491220	    -21.66370203	   -414.09863281	   -265.15277968	   -726.17367657	      0.00000000	      0.00000000	     -0.00000000	  -1815.74295552	      0.00000000	     -0.00000000	      0.00000000	      0.00000000	      0.00000000	      0.00000000	      0.00000000	      0.00000000	      0.00000000
      0.08000000	      0.00000000	     -0.00000000	      0.00000000	      0.00000000	      0.00000000	      0.00000000	      0.00000000	      0.00000000	      0.00000000	      0.62447357	     16.84564590	   -316.90170288	   -279.03685038	  -1000.82373993	      0.00000000	      0.00000000	      0.00000000	   1307.70416202	      0.44355202	    -21.82797817	   -414.59411621	   -264.72839675	   -726.00154945	      0.00000000	      0.00000000	     -0.00000000	  -1633.23591418	      0.00000000	     -0.00000000	      0.00000000	      0.00000000	      0.00000000	      0.00000000	      0.00000000	      0.00000000	      0.00000000
      0.09000000	      0.00000000	     -0.00000000	      0.00000000	      0.00000000	      0.00000000	      0.00000000	      0.00000000	      0.00000000	      0.00000000	      1.18550837	     17.12492180	   -317.00253296	   -278.83454012	  -1002.76365104	      0.00000000	      0.00000000	      0.00000000	   1379.86854246	      0.93790790	    -22.16874322	   -413.89486694	   -264.90487965	   -727.10517013	      0.00000000	      0.00000000	     -0.00000000	  -1860.05726951	      0.00000000	     -0.00000000	      0.00000000	      0.00000000	      0.00000000	      0.00000000	      0.00000000	      0.00000000	      0.00000000
      0.10000000	      0.00000000	     -0.00000000	      0.00000000	      0.00000000	      0.00000000	      0.00000000	      0.00000000	      0.00000000	      0.00000000	      1.82306159	     16.79533195	   -314.13079834	   -280.13816880	   -998.45176723	      0.00000000	      0.00000000	      0.00000000	   1375.48851384	      1.01372549	    -22.18138894	   -413.59545898	   -265.45236059	   -728.19632234	      0.00000000	     -0.00000000	     -0.00000000	  -1749.66296632	      0.00000000	     -0.00000000	      0.00000000	      0.00000000	      0.00000000	      0.00000000	      0.00000000	      0.00000000	      0.00000000
      0.11000000	      0.00000000	     -0.00000000	      0.00000000	      0.00000000	      0.00000000	      0.00000000	      0.00000000	      0.00000000	      0.00000000	      2.21723461	     16.22371674	   -312.31420898	   -281.15988334	   -999.10128522	      0.00000000	      0.00000000	      0.00000000	   1414.39803829	      0.67135109	    -22.38355261	   -414.49328613	   -265.65244544	   -727.66668763	      0.00000000	      0.00000000	      0.00000000	  -1643.32981890	      0.00000000	     -0.00000000	      0.00000000	      0.00000000	      0.00000000	      0.00000000	      0.00000000	      0.00000000	      0.00000000
      0.12000000	      0.00000000	     -0.00000000	      0.00000000	      0.00000000	      0.00000000	      0.00000000	      0.00000000	      0.00000000	      0.00000000	      2.48480129	     16.21109009	   -311.30703735	   -281.89046251	   -998.94824932	      0.00000000	      0.00000000	      0.00000000	   1395.34563533	      0.70968433	    -22.33378035	   -414.64517212	   -266.13955506	   -727.51391708	      0.00000000	      0.00000000	     -0.00000000	  -1632.43379937	      0.00000000	     -0.00000000	      0.00000000	      0.00000000	      0.00000000	      0.00000000	      0.00000000	      0.00000000	      0.00000000
      0.13000000	      0.00000000	     -0.00000000	      0.00000000	      0.00000000	      0.00000000	      0.00000000	      0.00000000	      0.00000000	      0.00000000	      3.08285570	     16.29770470	   -311.80575562	   -282.10611289	   -998.36261212	      0.00000000	      0.00000000	      0.00000000	   1401.43009296	      0.78720142	    -23.01508910	   -415.68704224	   -265.95323628	   -727.49963197	      0.00000000	     -0.00000000	     -0.00000000	  -1572.21256310	      0.00000000	     -0.00000000	      0.00000000	      0.00000000	      0.00000000	      0.00000000	      0.00000000	      0.00000000	      0.00000000
      0.14000000	      0.00000000	     -0.00000000	      0.00000000	      0.00000000	      0.00000000	      0.00000000	      0.00000000	      0.00000000	      0.00000000	      2.90424013	     15.95434189	   -311.80551147	   -283.45445949	   -998.73175699	      0.00000000	      0.00000000	      0.00000000	   1430.86917125	      1.10130219	    -22.73745356	   -417.43203735	   -266.51125264	   -726.55621219	      0.00000000	     -0.00000000	      0.00000000	  -1700.56501762	      0.00000000	     -0.00000000	      0.00000000	      0.00000000	      0.00000000	      0.00000000	      0.00000000	      0.00000000	      0.00000000
